<svg width="140" height="45" viewBox="0 0 140 45" fill="none" xmlns="http://www.w3.org/2000/svg">
<path d="M127.994 0C130.312 0 132.337 0.521214 134.07 1.56364C135.826 2.60606 137.181 4.10909 138.132 6.07273C139.108 8.01212 139.596 10.3758 139.596 13.1636C139.596 15.8788 139.096 18.2545 138.096 20.2909C137.12 22.3273 135.753 23.9152 133.996 25.0545C132.239 26.1939 130.226 26.7636 127.957 26.7636C125.639 26.7636 123.602 26.2424 121.845 25.2C120.112 24.1576 118.758 22.6546 117.782 20.6909C116.83 18.7273 116.354 16.3636 116.354 13.6C116.354 10.8849 116.855 8.50909 117.855 6.47273C118.856 4.43636 120.222 2.84849 121.955 1.70909C123.711 0.569699 125.724 0 127.994 0ZM127.847 0.654547C126.261 0.654547 124.883 1.2 123.711 2.29091C122.54 3.38182 121.625 4.88485 120.966 6.8C120.332 8.71515 120.015 10.9333 120.015 13.4545C120.015 16.0242 120.368 18.2667 121.076 20.1818C121.808 22.0727 122.784 23.5394 124.004 24.5818C125.249 25.6 126.615 26.1091 128.104 26.1091C129.69 26.1091 131.068 25.5636 132.239 24.4727C133.411 23.3818 134.314 21.8788 134.948 19.9636C135.607 18.0242 135.936 15.8061 135.936 13.3091C135.936 10.7152 135.57 8.47273 134.838 6.58182C134.131 4.69091 133.167 3.23637 131.947 2.21818C130.727 1.17576 129.36 0.654547 127.847 0.654547Z" fill="#D17D2F"/>
<path d="M113.345 0.509094V1.23637C112.515 1.26061 111.881 1.38182 111.442 1.6C111.027 1.81818 110.746 2.1697 110.6 2.65455C110.453 3.1394 110.38 3.83031 110.38 4.72728V26.4364C110.234 26.4364 110.087 26.4364 109.941 26.4364C109.819 26.4364 109.685 26.4364 109.538 26.4364L94.1659 2.83636V22.0364C94.1659 22.9091 94.2391 23.6 94.3855 24.1091C94.5563 24.5939 94.8735 24.9455 95.3372 25.1636C95.8252 25.3576 96.545 25.4788 97.4966 25.5273V26.2545C97.0574 26.2061 96.484 26.1818 95.7764 26.1818C95.0687 26.1576 94.3977 26.1455 93.7633 26.1455C93.1533 26.1455 92.5311 26.1576 91.8966 26.1818C91.2866 26.1818 90.7742 26.2061 90.3594 26.2545V25.5273C91.189 25.4788 91.8112 25.3576 92.226 25.1636C92.6653 24.9455 92.9581 24.5939 93.1045 24.1091C93.2509 23.6 93.3241 22.9091 93.3241 22.0364V4.36364C93.3241 3.46667 93.2509 2.81212 93.1045 2.4C92.9581 1.96364 92.6653 1.67273 92.226 1.52728C91.8112 1.35758 91.189 1.26061 90.3594 1.23637V0.509094C90.7742 0.533336 91.2866 0.557578 91.8966 0.58182C92.5311 0.606062 93.1533 0.618183 93.7633 0.618183C94.3001 0.618183 94.8125 0.606062 95.3006 0.58182C95.7886 0.557578 96.2278 0.533336 96.6182 0.509094L109.538 20.2909V4.72728C109.538 3.83031 109.453 3.1394 109.282 2.65455C109.136 2.1697 108.819 1.81818 108.331 1.6C107.867 1.38182 107.159 1.26061 106.208 1.23637V0.509094C106.647 0.533336 107.22 0.557578 107.928 0.58182C108.66 0.606062 109.331 0.618183 109.941 0.618183C110.575 0.618183 111.198 0.606062 111.808 0.58182C112.442 0.557578 112.955 0.533336 113.345 0.509094Z" fill="#D17D2F"/>
<path d="M78.305 0.327271L87.2357 23.2C87.6017 24.1212 88.0165 24.7394 88.4802 25.0545C88.9438 25.3455 89.3708 25.503 89.7612 25.5273V26.2545C89.2732 26.2061 88.6754 26.1818 87.9677 26.1818C87.2601 26.1576 86.5525 26.1455 85.8449 26.1455C84.8932 26.1455 84.0026 26.1576 83.173 26.1818C82.3433 26.1818 81.6723 26.2061 81.1599 26.2545V25.5273C82.4043 25.4788 83.1974 25.2727 83.539 24.9091C83.8806 24.5212 83.8074 23.7091 83.3194 22.4727L76.5115 4.4L77.0971 3.92727L70.7285 20.3636C70.3381 21.3333 70.1063 22.1576 70.0331 22.8364C69.9599 23.4909 70.0209 24.0121 70.2161 24.4C70.4357 24.7879 70.7895 25.0667 71.2775 25.2364C71.79 25.4061 72.4244 25.503 73.1808 25.5273V26.2545C72.4976 26.2061 71.7778 26.1818 71.0213 26.1818C70.2893 26.1576 69.6061 26.1455 68.9717 26.1455C68.3616 26.1455 67.837 26.1576 67.3978 26.1818C66.983 26.1818 66.5926 26.2061 66.2266 26.2545V25.5273C66.7146 25.4061 67.2148 25.1273 67.7272 24.6909C68.2396 24.2303 68.7032 23.4545 69.1181 22.3636L77.7194 0.327271C77.817 0.327271 77.9146 0.327271 78.0122 0.327271C78.1098 0.327271 78.2074 0.327271 78.305 0.327271ZM82.7704 15.7818V16.5091H71.8632L72.2292 15.7818H82.7704Z" fill="#D17D2F"/>
<path d="M44.2861 0.509094C44.7986 0.533336 45.4696 0.557578 46.2992 0.58182C47.1288 0.606062 47.9463 0.618183 48.7515 0.618183C49.8983 0.618183 50.9964 0.606062 52.0456 0.58182C53.0948 0.557578 53.8391 0.545457 54.2783 0.545457C56.2548 0.545457 57.8896 0.824245 59.1829 1.38182C60.5005 1.9394 61.4765 2.70303 62.111 3.67273C62.7698 4.61818 63.0992 5.68485 63.0992 6.87273C63.0992 7.6 62.9528 8.37576 62.66 9.2C62.3672 10.0242 61.8548 10.8 61.1227 11.5273C60.4151 12.2545 59.4391 12.8606 58.1946 13.3455C56.9502 13.8061 55.3763 14.0364 53.4731 14.0364H49.9593V13.3091H53.107C54.8395 13.3091 56.1572 13.0424 57.06 12.5091C57.9872 11.9515 58.6094 11.2242 58.9267 10.3273C59.2683 9.40606 59.4391 8.38788 59.4391 7.27273C59.4391 5.35758 58.9755 3.87879 58.0482 2.83636C57.1454 1.7697 55.5837 1.23637 53.3633 1.23637C52.2408 1.23637 51.5088 1.44243 51.1672 1.85455C50.8256 2.26667 50.6548 3.10303 50.6548 4.36364V22.4C50.6548 23.2727 50.728 23.9273 50.8744 24.3636C51.0208 24.8 51.3014 25.0909 51.7162 25.2364C52.1554 25.3818 52.7898 25.4788 53.6195 25.5273V26.2545C53.0582 26.2061 52.3506 26.1818 51.4966 26.1818C50.667 26.1576 49.8251 26.1455 48.9711 26.1455C48.0195 26.1455 47.1288 26.1576 46.2992 26.1818C45.4696 26.1818 44.7986 26.2061 44.2861 26.2545V25.5273C45.1158 25.4788 45.738 25.3818 46.1528 25.2364C46.592 25.0909 46.8848 24.8 47.0312 24.3636C47.1776 23.9273 47.2508 23.2727 47.2508 22.4V4.36364C47.2508 3.46667 47.1776 2.81212 47.0312 2.4C46.8848 1.96364 46.592 1.67273 46.1528 1.52728C45.738 1.35758 45.1158 1.26061 44.2861 1.23637V0.509094ZM50.1057 13.4182C51.4234 13.4667 52.4604 13.5273 53.2169 13.6C53.9733 13.6485 54.5833 13.697 55.0469 13.7455C55.5349 13.7939 55.9985 13.8545 56.4378 13.9273C58.0726 14.1939 59.2439 14.6909 59.9515 15.4182C60.6835 16.1212 61.2203 17.2242 61.5619 18.7273L62.477 22.4364C62.721 23.503 62.965 24.2788 63.209 24.7636C63.4774 25.2242 63.88 25.4424 64.4169 25.4182C64.8317 25.3939 65.1733 25.2606 65.4417 25.0182C65.7345 24.7758 66.0395 24.4485 66.3567 24.0364L66.9057 24.4364C66.3933 25.1879 65.8565 25.7697 65.2953 26.1818C64.7585 26.5697 63.9898 26.7636 62.9894 26.7636C62.0866 26.7636 61.2935 26.497 60.6103 25.9636C59.9271 25.4303 59.4147 24.3879 59.0731 22.8364L58.2678 19.2C58.0482 18.1576 57.792 17.2606 57.4992 16.5091C57.2308 15.7333 56.8404 15.1273 56.328 14.6909C55.8399 14.2545 55.1079 14.0364 54.1319 14.0364H50.1789L50.1057 13.4182Z" fill="#D17D2F"/>
<path d="M41.2166 0.509094V1.23637C40.387 1.26061 39.7526 1.35758 39.3134 1.52728C38.8986 1.67273 38.6179 1.96364 38.4715 2.4C38.3251 2.81212 38.2519 3.46667 38.2519 4.36364V22.4C38.2519 23.2727 38.3251 23.9273 38.4715 24.3636C38.6179 24.8 38.8986 25.0909 39.3134 25.2364C39.7526 25.3818 40.387 25.4788 41.2166 25.5273V26.2545C40.6554 26.2061 39.9478 26.1818 39.0938 26.1818C38.2641 26.1576 37.4223 26.1455 36.5683 26.1455C35.6166 26.1455 34.726 26.1576 33.8964 26.1818C33.0667 26.1818 32.3957 26.2061 31.8833 26.2545V25.5273C32.7129 25.4788 33.3352 25.3818 33.75 25.2364C34.1892 25.0909 34.482 24.8 34.6284 24.3636C34.7748 23.9273 34.848 23.2727 34.848 22.4V4.36364C34.848 3.46667 34.7748 2.81212 34.6284 2.4C34.482 1.96364 34.1892 1.67273 33.75 1.52728C33.3352 1.35758 32.7129 1.26061 31.8833 1.23637V0.509094C32.3957 0.533336 33.0667 0.557578 33.8964 0.58182C34.726 0.606062 35.6166 0.618183 36.5683 0.618183C37.4223 0.618183 38.2641 0.606062 39.0938 0.58182C39.9478 0.557578 40.6554 0.533336 41.2166 0.509094Z" fill="#D17D2F"/>
<path d="M28.8052 0.509094V1.23637C27.9756 1.26061 27.3412 1.35758 26.902 1.52728C26.4871 1.67273 26.2065 1.96364 26.0601 2.4C25.9137 2.81212 25.8405 3.46667 25.8405 4.36364V22.4C25.8405 23.2727 25.9137 23.9273 26.0601 24.3636C26.2065 24.8 26.4871 25.0909 26.902 25.2364C27.3412 25.3818 27.9756 25.4788 28.8052 25.5273V26.2545C28.244 26.2061 27.5364 26.1818 26.6823 26.1818C25.8527 26.1576 25.0109 26.1455 24.1569 26.1455C23.2052 26.1455 22.3146 26.1576 21.485 26.1818C20.6553 26.1818 19.9843 26.2061 19.4719 26.2545V25.5273C20.3015 25.4788 20.9237 25.3818 21.3386 25.2364C21.7778 25.0909 22.0706 24.8 22.217 24.3636C22.3634 23.9273 22.4366 23.2727 22.4366 22.4V2.4L22.583 2.50909L13.6157 26.4364H13.0301L3.80654 2.83636V22.0364C3.80654 22.9091 3.87974 23.6 4.02614 24.1091C4.19695 24.5939 4.51416 24.9455 4.97778 25.1636C5.46579 25.3576 6.18562 25.4788 7.13725 25.5273V26.2545C6.69804 26.2061 6.12462 26.1818 5.41699 26.1818C4.70937 26.1576 4.03834 26.1455 3.40392 26.1455C2.7939 26.1455 2.17168 26.1576 1.53725 26.1818C0.927233 26.1818 0.414815 26.2061 0 26.2545V25.5273C0.829629 25.4788 1.45185 25.3576 1.86667 25.1636C2.30588 24.9455 2.59869 24.5939 2.7451 24.1091C2.8915 23.6 2.96471 22.9091 2.96471 22.0364V4.36364C2.96471 3.46667 2.8915 2.81212 2.7451 2.4C2.59869 1.96364 2.30588 1.67273 1.86667 1.52728C1.45185 1.35758 0.829629 1.26061 0 1.23637V0.509094C0.414815 0.533336 0.927233 0.557578 1.53725 0.58182C2.17168 0.606062 2.7939 0.618183 3.40392 0.618183C3.94074 0.618183 4.48976 0.606062 5.05098 0.58182C5.6366 0.557578 6.12462 0.533336 6.51503 0.509094L14.8235 22.2545L14.2013 22.5455L22.4366 0.618183C22.7294 0.618183 23.01 0.618183 23.2784 0.618183C23.5712 0.618183 23.8641 0.618183 24.1569 0.618183C25.0109 0.618183 25.8527 0.606062 26.6823 0.58182C27.5364 0.557578 28.244 0.533336 28.8052 0.509094Z" fill="#D17D2F"/>
<path d="M129.149 43.472V33.3689H134.835V33.9411H129.772V38.1294H134.531V38.7017H129.772V42.8998H134.955V43.472H129.149Z" fill="#D17D2F"/>
<path d="M125.574 33.3689H126.197V40.0583C126.197 40.7456 126.036 41.359 125.713 41.8984C125.391 42.4344 124.945 42.8587 124.377 43.1711C123.811 43.4803 123.161 43.6348 122.426 43.6348C121.695 43.6348 121.045 43.4803 120.476 43.1711C119.907 42.8587 119.46 42.4328 119.134 41.8934C118.812 41.3541 118.652 40.7424 118.655 40.0583V33.3689H119.279V40.0238C119.279 40.6059 119.412 41.1239 119.678 41.5777C119.947 42.0316 120.318 42.39 120.79 42.6531C121.262 42.913 121.808 43.0429 122.426 43.0429C123.045 43.0429 123.59 42.913 124.062 42.6531C124.535 42.39 124.904 42.0316 125.17 41.5777C125.439 41.1239 125.574 40.6059 125.574 40.0238V33.3689Z" fill="#D17D2F"/>
<path d="M112.029 40.3148H112.747L114.234 42.2536L114.373 42.441L115.88 44.4192H115.161L113.924 42.7962L113.795 42.6186L112.029 40.3148ZM116.219 38.4205C116.219 39.463 116.036 40.374 115.67 41.1535C115.304 41.9296 114.796 42.5331 114.144 42.9639C113.495 43.3948 112.747 43.6102 111.899 43.6102C111.048 43.6102 110.296 43.3948 109.645 42.9639C108.996 42.5298 108.489 41.9247 108.123 41.1485C107.758 40.3691 107.575 39.4597 107.575 38.4205C107.575 37.3779 107.758 36.4686 108.123 35.6924C108.492 34.9163 109.001 34.3128 109.65 33.882C110.298 33.4478 111.048 33.2308 111.899 33.2308C112.747 33.2308 113.495 33.4462 114.144 33.877C114.796 34.3079 115.304 34.913 115.67 35.6924C116.036 36.4686 116.219 37.3779 116.219 38.4205ZM115.61 38.4205C115.61 37.4832 115.451 36.6708 115.132 35.9835C114.816 35.2961 114.378 34.765 113.82 34.3901C113.261 34.0119 112.621 33.8228 111.899 33.8228C111.178 33.8228 110.538 34.0102 109.979 34.3851C109.42 34.7568 108.981 35.2879 108.662 35.9786C108.346 36.6659 108.188 37.4799 108.188 38.4205C108.188 39.3512 108.345 40.1619 108.657 40.8525C108.973 41.5399 109.41 42.0727 109.969 42.4509C110.528 42.8291 111.171 43.0182 111.899 43.0182C112.621 43.0182 113.261 42.8307 113.82 42.4558C114.378 42.0776 114.816 41.5448 115.132 40.8575C115.451 40.1701 115.61 39.3578 115.61 38.4205Z" fill="#D17D2F"/>
<path d="M105.137 33.3689V43.472H104.513V33.3689H105.137Z" fill="#D17D2F"/>
<path d="M95.0835 33.9411V33.3689H102.241V33.9411H98.9741V43.472H98.3506V33.9411H95.0835Z" fill="#D17D2F"/>
<path d="M92.1865 33.3689H92.81V40.0583C92.81 40.7456 92.6487 41.359 92.3261 41.8984C92.0036 42.4344 91.558 42.8587 90.9893 43.1711C90.424 43.4803 89.7739 43.6348 89.039 43.6348C88.3075 43.6348 87.6574 43.4803 87.0887 43.1711C86.5201 42.8587 86.0728 42.4328 85.747 41.8934C85.4244 41.3541 85.2648 40.7424 85.2681 40.0583V33.3689H85.8916V40.0238C85.8916 40.6059 86.0246 41.1239 86.2907 41.5777C86.56 42.0316 86.9308 42.39 87.403 42.6531C87.8752 42.913 88.4205 43.0429 89.039 43.0429C89.6575 43.0429 90.2029 42.913 90.6751 42.6531C91.1473 42.39 91.5164 42.0316 91.7824 41.5777C92.0518 41.1239 92.1865 40.6059 92.1865 40.0238V33.3689Z" fill="#D17D2F"/>
<path d="M82.8317 38.4205C82.8317 39.463 82.6488 40.374 82.283 41.1535C81.9172 41.9296 81.4085 42.5331 80.7567 42.9639C80.1082 43.3948 79.36 43.6102 78.5121 43.6102C77.6608 43.6102 76.9093 43.3948 76.2575 42.9639C75.6091 42.5298 75.102 41.9247 74.7362 41.1485C74.3704 40.3691 74.1875 39.4597 74.1875 38.4205C74.1875 37.3779 74.3704 36.4686 74.7362 35.6924C75.1053 34.9163 75.6141 34.3128 76.2625 33.882C76.9109 33.4478 77.6608 33.2308 78.5121 33.2308C79.36 33.2308 80.1082 33.4462 80.7567 33.877C81.4085 34.3079 81.9172 34.913 82.283 35.6924C82.6488 36.4686 82.8317 37.3779 82.8317 38.4205ZM82.2232 38.4205C82.2232 37.4832 82.0635 36.6708 81.7443 35.9835C81.4284 35.2961 80.9911 34.765 80.4325 34.3901C79.8738 34.0119 79.2337 33.8228 78.5121 33.8228C77.7905 33.8228 77.1504 34.0102 76.5917 34.3851C76.0331 34.7568 75.5941 35.2879 75.2749 35.9786C74.959 36.6659 74.801 37.4799 74.801 38.4205C74.801 39.3512 74.9573 40.1619 75.2699 40.8525C75.5858 41.5399 76.0231 42.0727 76.5817 42.4509C77.1404 42.8291 77.7838 43.0182 78.5121 43.0182C79.2337 43.0182 79.8738 42.8307 80.4325 42.4558C80.9911 42.0776 81.4284 41.5448 81.7443 40.8575C82.0635 40.1701 82.2232 39.3578 82.2232 38.4205Z" fill="#D17D2F"/>
<path d="M65.6665 43.472V33.3689H68.9835C69.602 33.3689 70.1241 33.4774 70.5497 33.6945C70.9754 33.9115 71.2979 34.2158 71.5174 34.6071C71.7402 34.9985 71.8516 35.454 71.8516 35.9736C71.8516 36.3814 71.7851 36.7432 71.6521 37.0589C71.5191 37.3746 71.3329 37.6361 71.0934 37.8433C70.8573 38.0472 70.5797 38.1886 70.2604 38.2675V38.3267C70.6129 38.3531 70.9405 38.4747 71.2431 38.6918C71.5457 38.9056 71.7884 39.1966 71.9713 39.565C72.1575 39.9333 72.2507 40.3625 72.2507 40.8525C72.2507 41.3689 72.1376 41.8244 71.9115 42.219C71.6887 42.6104 71.3545 42.9179 70.9089 43.1415C70.4633 43.3619 69.9113 43.472 69.2529 43.472H65.6665ZM66.29 42.8998H69.2529C70.021 42.8998 70.6113 42.709 71.0236 42.3275C71.4393 41.946 71.6471 41.4544 71.6471 40.8525C71.6471 40.4283 71.5457 40.0484 71.3428 39.713C71.1433 39.3775 70.8657 39.1128 70.5098 38.9187C70.154 38.7214 69.7417 38.6227 69.2728 38.6227H66.29V42.8998ZM66.29 38.0603H69.198C69.6336 38.0603 70.0027 37.9666 70.3053 37.7792C70.6113 37.5917 70.844 37.3401 71.0037 37.0244C71.1666 36.7087 71.2481 36.3584 71.2481 35.9736C71.2481 35.3487 71.0519 34.8538 70.6595 34.4887C70.2671 34.1237 69.7084 33.9411 68.9835 33.9411H66.29V38.0603Z" fill="#D17D2F"/>
<path d="M52.9648 43.472V33.3689H56.1123C56.7574 33.3689 57.3127 33.4939 57.7783 33.7438C58.2438 33.9938 58.6013 34.3407 58.8507 34.7847C59.1001 35.2254 59.2248 35.7385 59.2248 36.3239C59.2248 36.9027 59.1001 37.4125 58.8507 37.8532C58.6013 38.2906 58.2438 38.6326 57.7783 38.8793C57.316 39.1259 56.7624 39.2492 56.1173 39.2492H53.299V38.6721H56.1023C56.6277 38.6721 57.0766 38.575 57.449 38.381C57.8215 38.187 58.1075 37.9156 58.307 37.567C58.5065 37.2151 58.6063 36.8007 58.6063 36.3239C58.6063 35.8437 58.5065 35.426 58.307 35.0708C58.1075 34.7124 57.8198 34.4345 57.4441 34.2371C57.0716 34.0398 56.6227 33.9411 56.0973 33.9411H53.5883V43.472H52.9648ZM57.1597 38.8941L59.6737 43.472H58.9554L56.4564 38.8941H57.1597Z" fill="#D17D2F"/>
<path d="M44.6934 43.472V33.3689H50.3797V33.9411H45.3169V38.1294H50.0754V38.7017H45.3169V42.8998H50.4994V43.472H44.6934Z" fill="#D17D2F"/>
<path d="M33.5914 43.472L30.7832 33.3689H31.4316L33.9256 42.5199H33.9855L36.4396 33.3689H37.1978L39.6519 42.5199H39.7117L42.2057 33.3689H42.8492L40.0409 43.472H39.3226L36.8436 34.3802H36.7887L34.3097 43.472H33.5914Z" fill="#D17D2F"/>
<path d="M29.4591 38.4205C29.4591 39.463 29.2762 40.374 28.9105 41.1535C28.5447 41.9296 28.0359 42.5331 27.3841 42.9639C26.7357 43.3948 25.9875 43.6102 25.1395 43.6102C24.2882 43.6102 23.5367 43.3948 22.885 42.9639C22.2365 42.5298 21.7294 41.9247 21.3636 41.1485C20.9978 40.3691 20.8149 39.4597 20.8149 38.4205C20.8149 37.3779 20.9978 36.4686 21.3636 35.6924C21.7327 34.9163 22.2415 34.3128 22.8899 33.882C23.5384 33.4478 24.2882 33.2308 25.1395 33.2308C25.9875 33.2308 26.7357 33.4462 27.3841 33.877C28.0359 34.3079 28.5447 34.913 28.9105 35.6924C29.2762 36.4686 29.4591 37.3779 29.4591 38.4205ZM28.8506 38.4205C28.8506 37.4832 28.691 36.6708 28.3717 35.9835C28.0558 35.2961 27.6186 34.765 27.0599 34.3901C26.5013 34.0119 25.8611 33.8228 25.1395 33.8228C24.4179 33.8228 23.7778 34.0102 23.2192 34.3851C22.6605 34.7568 22.2216 35.2879 21.9023 35.9786C21.5864 36.6659 21.4285 37.4799 21.4285 38.4205C21.4285 39.3512 21.5848 40.1619 21.8973 40.8525C22.2132 41.5399 22.6505 42.0727 23.2092 42.4509C23.7678 42.8291 24.4113 43.0182 25.1395 43.0182C25.8611 43.0182 26.5013 42.8307 27.0599 42.4558C27.6186 42.0776 28.0558 41.5448 28.3717 40.8575C28.691 40.1701 28.8506 39.3578 28.8506 38.4205Z" fill="#D17D2F"/>
<path d="M13.8301 43.472V33.3689H14.4536V42.8998H19.4416V43.472H13.8301Z" fill="#D17D2F"/>
<path d="M5.6001 43.472V33.3689H11.3014V33.9411H6.2236V38.1294H10.8275V38.7017H6.2236V43.472H5.6001Z" fill="#D17D2F"/>
</svg>
