<svg width="23" height="23" viewBox="0 0 23 23" fill="none" xmlns="http://www.w3.org/2000/svg">
<path d="M11.375 0C5.096 0 0 5.096 0 11.375C0 17.654 5.096 22.75 11.375 22.75C17.654 22.75 22.75 17.654 22.75 11.375C22.75 5.096 17.654 0 11.375 0ZM16.653 7.735C16.4824 9.53225 15.743 13.9003 15.3676 15.9136C15.2084 16.7668 14.8899 17.0511 14.5941 17.0853C13.9344 17.1421 13.4339 16.653 12.7969 16.2321C11.7959 15.5724 11.2271 15.1629 10.2603 14.5259C9.13413 13.7865 9.86213 13.377 10.5105 12.7173C10.6811 12.5466 13.5931 9.89625 13.65 9.65738C13.6579 9.62119 13.6568 9.58363 13.6469 9.54795C13.637 9.51227 13.6186 9.47955 13.5931 9.45263C13.5249 9.39575 13.4339 9.4185 13.3542 9.42988C13.2519 9.45263 11.6594 10.5105 8.554 12.6035C8.099 12.9106 7.6895 13.0699 7.3255 13.0585C6.916 13.0471 6.1425 12.831 5.56238 12.6376C4.84575 12.4101 4.28837 12.285 4.33388 11.8869C4.35663 11.6821 4.641 11.4774 5.17563 11.2613C8.49713 9.81662 10.7039 8.86113 11.8073 8.40613C14.9695 7.08663 15.6179 6.85913 16.0501 6.85913C16.1411 6.85913 16.3573 6.88188 16.4938 6.99563C16.6075 7.08663 16.6416 7.21175 16.653 7.30275C16.6416 7.371 16.6644 7.57575 16.653 7.735Z" fill="#D17D2F"/>
</svg>
