<svg width="23" height="23" viewBox="0 0 23 23" fill="none" xmlns="http://www.w3.org/2000/svg">
<path d="M11.375 0C5.09268 0 0 5.09268 0 11.375C0 17.6573 5.09268 22.75 11.375 22.75C17.6573 22.75 22.75 17.6573 22.75 11.375C22.75 5.09268 17.6573 0 11.375 0ZM15.7496 12.8336C15.7496 12.8336 16.7556 13.8265 17.0033 14.2875C17.0104 14.297 17.0139 14.3064 17.0163 14.3112C17.117 14.4806 17.1407 14.6121 17.0909 14.7105C17.008 14.874 16.7236 14.9546 16.6265 14.9617H14.8491C14.7259 14.9617 14.4676 14.9297 14.1548 14.714C13.9142 14.5458 13.6773 14.2697 13.4462 14.0007C13.1014 13.6002 12.8028 13.2542 12.5018 13.2542C12.4636 13.2542 12.4256 13.2602 12.3893 13.272C12.1618 13.3455 11.8703 13.6701 11.8703 14.5351C11.8703 14.8053 11.657 14.9605 11.5065 14.9605H10.6925C10.4152 14.9605 8.97085 14.8633 7.69116 13.5137C6.12473 11.8608 4.7147 8.54547 4.70285 8.51466C4.61398 8.30019 4.79764 8.18526 4.99789 8.18526H6.79301C7.03236 8.18526 7.11056 8.331 7.16506 8.46016C7.22905 8.61064 7.46366 9.20901 7.84875 9.88203C8.47319 10.9792 8.85591 11.4248 9.1628 11.4248C9.22034 11.4241 9.27686 11.4094 9.3275 11.3821C9.72799 11.1593 9.65335 9.73155 9.63557 9.43532C9.63557 9.37963 9.63439 8.79667 9.4294 8.51703C9.28247 8.31441 9.03246 8.2374 8.88079 8.20896C8.94218 8.12425 9.02306 8.05557 9.11659 8.00871C9.39148 7.87126 9.88677 7.85112 10.3785 7.85112H10.6522C11.1854 7.85823 11.3229 7.89259 11.516 7.94117C11.907 8.03478 11.9153 8.28716 11.8809 9.15095C11.8703 9.39622 11.8596 9.67349 11.8596 10.0005C11.8596 10.0716 11.8561 10.1474 11.8561 10.228C11.8442 10.6676 11.83 11.1665 12.1404 11.3714C12.1809 11.3968 12.2277 11.4104 12.2755 11.4105C12.3833 11.4105 12.708 11.4105 13.5872 9.90217C13.8583 9.41667 14.094 8.91217 14.2922 8.39262C14.31 8.36181 14.3621 8.26702 14.4237 8.23029C14.4692 8.2071 14.5196 8.19531 14.5707 8.19592H16.681C16.9108 8.19592 17.0684 8.23029 17.098 8.31915C17.1502 8.46016 17.0886 8.89027 16.1252 10.1948L15.6951 10.7624C14.8219 11.907 14.8219 11.9651 15.7496 12.8336Z" fill="#D17D2F"/>
</svg>
