<svg width="24" height="17" viewBox="0 0 24 17" fill="none" xmlns="http://www.w3.org/2000/svg">
<path d="M9.33333 11.6667L15.3883 8.16667L9.33333 4.66667V11.6667ZM22.82 2.53167C22.9717 3.08 23.0767 3.815 23.1467 4.74833C23.2283 5.68167 23.2633 6.48667 23.2633 7.18667L23.3333 8.16667C23.3333 10.7217 23.1467 12.6 22.82 13.8017C22.5283 14.8517 21.8517 15.5283 20.8017 15.82C20.2533 15.9717 19.25 16.0767 17.71 16.1467C16.1933 16.2283 14.805 16.2633 13.5217 16.2633L11.6667 16.3333C6.77833 16.3333 3.73333 16.1467 2.53167 15.82C1.48167 15.5283 0.805 14.8517 0.513333 13.8017C0.361667 13.2533 0.256667 12.5183 0.186667 11.585C0.105 10.6517 0.0699999 9.84667 0.0699999 9.14667L0 8.16667C0 5.61167 0.186667 3.73333 0.513333 2.53167C0.805 1.48167 1.48167 0.805 2.53167 0.513333C3.08 0.361667 4.08333 0.256666 5.62333 0.186666C7.14 0.105 8.52833 0.0699999 9.81167 0.0699999L11.6667 0C16.555 0 19.6 0.186667 20.8017 0.513333C21.8517 0.805 22.5283 1.48167 22.82 2.53167Z" fill="#D17D2F"/>
</svg>
